<svg width="225" height="22" viewBox="0 0 225 22" fill="none" xmlns="http://www.w3.org/2000/svg">
<path d="M16.14 12.12C16.2067 12.9467 16.34 13.64 16.54 14.2C16.7533 14.7467 17.08 15.24 17.52 15.68L17.26 16H12.88L12.64 15.32L13.1 15.2C13.5267 15.0667 13.82 14.9 13.98 14.7C14.1533 14.4867 14.24 14.1733 14.24 13.76L14.2 13.02L13.62 4.68L9.44 14.56H8.36L4.18 4.68L3.74 10.84C3.66 11.7733 3.62 12.4267 3.62 12.8C3.62 13.3467 3.67333 13.8133 3.78 14.2C3.9 14.5733 4.08667 14.9467 4.34 15.32L4.58 15.68L4.28 16H0.52L0.3 15.32L0.76 15.2C1.28 15.04 1.63333 14.84 1.82 14.6C2.02 14.36 2.14 13.94 2.18 13.34L2.72 5.42C2.73333 5.24667 2.75333 5.00667 2.78 4.7C2.80667 4.39333 2.82 4.12 2.82 3.88C2.82 3.42667 2.73333 3.1 2.56 2.9C2.4 2.7 2.1 2.54667 1.66 2.44L1.2 2.32L1.42 1.64H5.06L9.18 11.7L13.42 1.64H16.3L16.6 1.96L16.36 2.32C16.1067 2.69333 15.92 3.07333 15.8 3.46C15.6933 3.83333 15.64 4.29333 15.64 4.84C15.64 5.04 15.6733 5.64 15.74 6.64L16.14 12.12ZM20.258 2.84C20.258 2.58667 20.398 2.30667 20.678 2C20.9713 1.68 21.238 1.52 21.478 1.52C21.7313 1.52 22.0046 1.67333 22.298 1.98C22.5913 2.28667 22.738 2.57333 22.738 2.84C22.738 3.09333 22.5913 3.37333 22.298 3.68C22.0046 3.98667 21.7313 4.14 21.478 4.14C21.2513 4.14 20.9913 3.98667 20.698 3.68C20.4046 3.37333 20.258 3.09333 20.258 2.84ZM22.378 14.24C22.378 14.6933 22.578 14.92 22.978 14.92C23.3113 14.92 23.6446 14.78 23.978 14.5L24.358 15.02C24.0113 15.4067 23.638 15.7133 23.238 15.94C22.838 16.1667 22.4646 16.28 22.118 16.28C21.5713 16.28 21.178 16.1133 20.938 15.78C20.698 15.4467 20.578 14.9067 20.578 14.16V7.96C20.578 7.8 20.5446 7.68667 20.478 7.62C20.4246 7.55333 20.3246 7.52 20.178 7.52H19.298L19.118 7C19.5046 6.65333 19.9446 6.36667 20.438 6.14C20.9313 5.91333 21.3713 5.8 21.758 5.8C21.9446 5.8 22.098 5.86 22.218 5.98C22.338 6.1 22.398 6.25333 22.398 6.44L22.378 14.24ZM33.3484 13.94C33.3884 13.9 33.4484 13.88 33.5284 13.88C33.6351 13.88 33.7418 13.94 33.8484 14.06C33.9684 14.18 34.0284 14.3067 34.0284 14.44C34.0284 14.52 34.0084 14.58 33.9684 14.62C33.5018 15.1533 32.9551 15.5667 32.3284 15.86C31.7151 16.14 31.0618 16.28 30.3684 16.28C29.4484 16.28 28.6218 16.06 27.8884 15.62C27.1551 15.1667 26.5818 14.5467 26.1684 13.76C25.7551 12.96 25.5484 12.06 25.5484 11.06C25.5484 10.0067 25.7484 9.08667 26.1484 8.3C26.5484 7.5 27.1084 6.88667 27.8284 6.46C28.5618 6.02 29.4151 5.8 30.3884 5.8C31.4151 5.8 32.2551 6.05333 32.9084 6.56C33.5751 7.05333 33.9084 7.69333 33.9084 8.48C33.9084 9.05333 33.7218 9.52667 33.3484 9.9C32.9884 10.26 32.5218 10.44 31.9484 10.44C31.6951 10.44 31.5684 10.3667 31.5684 10.22C31.5684 10.18 31.6151 10.0867 31.7084 9.94C31.8018 9.79333 31.8818 9.61333 31.9484 9.4C32.0151 9.18667 32.0484 8.91333 32.0484 8.58C32.0484 8.04667 31.8751 7.62667 31.5284 7.32C31.1951 7 30.7418 6.84 30.1684 6.84C29.4084 6.84 28.7951 7.21333 28.3284 7.96C27.8618 8.70667 27.6284 9.68667 27.6284 10.9C27.6284 12.14 27.9018 13.1267 28.4484 13.86C29.0084 14.58 29.7618 14.94 30.7084 14.94C31.6684 14.94 32.5484 14.6067 33.3484 13.94ZM39.0242 8.78C39.2509 7.88667 39.5976 7.16667 40.0642 6.62C40.5442 6.07333 41.0642 5.8 41.6242 5.8C42.1842 5.8 42.6442 5.98667 43.0042 6.36C43.3776 6.72 43.5642 7.21333 43.5642 7.84C43.5642 8.34667 43.3776 8.77333 43.0042 9.12C42.6309 9.46667 42.1642 9.64 41.6042 9.64C41.3509 9.64 41.2242 9.56667 41.2242 9.42C41.2242 9.38 41.2776 9.28 41.3842 9.12C41.5042 8.96 41.5976 8.79333 41.6642 8.62C41.7442 8.44667 41.7842 8.25333 41.7842 8.04C41.7842 7.8 41.7176 7.61333 41.5842 7.48C41.4642 7.33333 41.3109 7.26 41.1242 7.26C40.8042 7.26 40.4709 7.45333 40.1242 7.84C39.7909 8.21333 39.5042 8.82667 39.2642 9.68C39.0242 10.52 38.9042 11.5867 38.9042 12.88C38.9042 13.48 38.9509 13.9667 39.0442 14.34C39.1376 14.7 39.3042 15.0467 39.5442 15.38L39.7842 15.7L39.5442 16H36.0442L35.8242 15.38L36.2442 15.28C36.5776 15.2 36.7976 15.06 36.9042 14.86C37.0242 14.6467 37.0842 14.2867 37.0842 13.78V8.16C37.0842 8 37.0509 7.88667 36.9842 7.82C36.9309 7.75333 36.8309 7.72 36.6842 7.72H35.8042L35.6242 7.2C36.0109 6.85333 36.4509 6.56667 36.9442 6.34C37.4509 6.11333 37.8909 6 38.2642 6C38.4509 6 38.6042 6.06 38.7242 6.18C38.8442 6.3 38.9042 6.45333 38.9042 6.64V8.78H39.0242ZM44.4547 11.04C44.4547 9.97333 44.648 9.04667 45.0347 8.26C45.4347 7.47333 46.0014 6.86667 46.7347 6.44C47.4814 6.01333 48.348 5.8 49.3347 5.8C50.3214 5.8 51.1814 6.01333 51.9147 6.44C52.648 6.86667 53.2147 7.47333 53.6147 8.26C54.0147 9.04667 54.2147 9.97333 54.2147 11.04C54.2147 12.0933 54.0147 13.02 53.6147 13.82C53.2147 14.6067 52.648 15.2133 51.9147 15.64C51.1814 16.0667 50.3214 16.28 49.3347 16.28C48.348 16.28 47.4814 16.0667 46.7347 15.64C46.0014 15.2133 45.4347 14.6067 45.0347 13.82C44.648 13.02 44.4547 12.0933 44.4547 11.04ZM52.1147 11.1C52.1147 10.4733 52.028 9.83333 51.8547 9.18C51.6814 8.52667 51.388 7.97333 50.9747 7.52C50.5747 7.06667 50.048 6.84 49.3947 6.84C48.8347 6.84 48.3347 7.02 47.8947 7.38C47.468 7.72667 47.1347 8.22 46.8947 8.86C46.6547 9.5 46.5347 10.2333 46.5347 11.06C46.5347 12.3267 46.7814 13.3333 47.2747 14.08C47.768 14.8267 48.4347 15.2 49.2747 15.2C49.8214 15.2 50.308 15.0333 50.7347 14.7C51.1747 14.3533 51.5147 13.8733 51.7547 13.26C51.9947 12.6333 52.1147 11.9133 52.1147 11.1ZM57.2972 6.06C57.2972 4.28667 57.6105 2.89333 58.2372 1.88C58.8639 0.866666 59.7905 0.359999 61.0172 0.359999C61.8839 0.359999 62.5972 0.566665 63.1572 0.979999C63.7172 1.39333 63.9972 1.92667 63.9972 2.58C63.9972 3.15333 63.8105 3.62667 63.4372 4C63.0772 4.36 62.6105 4.54 62.0372 4.54C61.7839 4.54 61.6572 4.46667 61.6572 4.32C61.6572 4.28 61.7039 4.18667 61.7972 4.04C61.8905 3.89333 61.9705 3.71333 62.0372 3.5C62.1039 3.28667 62.1372 3.01333 62.1372 2.68C62.1372 2.25333 62.0172 1.91333 61.7772 1.66C61.5372 1.39333 61.2105 1.26 60.7972 1.26C60.2105 1.26 59.7772 1.55333 59.4972 2.14C59.2305 2.71333 59.0972 3.51333 59.0972 4.54V6.06H61.8972C61.8972 6.34 61.8572 6.59333 61.7772 6.82C61.6972 7.04667 61.5839 7.21333 61.4372 7.32H59.0972V16.26C59.0972 17.6467 58.7905 18.74 58.1772 19.54C57.5772 20.3533 56.6839 20.76 55.4972 20.76C54.7772 20.76 54.1839 20.5733 53.7172 20.2C53.2505 19.84 53.0172 19.3467 53.0172 18.72C53.0172 18.2133 53.2039 17.7867 53.5772 17.44C53.9505 17.0933 54.4172 16.92 54.9772 16.92C55.2305 16.92 55.3572 16.9933 55.3572 17.14C55.3572 17.18 55.3039 17.2667 55.1972 17.4C55.0905 17.5467 54.9972 17.7067 54.9172 17.88C54.8372 18.0667 54.7972 18.3 54.7972 18.58C54.7972 18.9933 54.9039 19.3133 55.1172 19.54C55.3172 19.78 55.5772 19.9 55.8972 19.9C56.2972 19.9 56.6305 19.72 56.8972 19.36C57.1639 19.0133 57.2972 18.4933 57.2972 17.8V7.32H55.5372C55.5372 6.96 55.5639 6.72667 55.6172 6.62C55.6705 6.51333 55.8039 6.43333 56.0172 6.38L57.2972 6.06ZM63.6369 2.84C63.6369 2.58667 63.7769 2.30667 64.0569 2C64.3502 1.68 64.6169 1.52 64.8569 1.52C65.1102 1.52 65.3835 1.67333 65.6769 1.98C65.9702 2.28667 66.1169 2.57333 66.1169 2.84C66.1169 3.09333 65.9702 3.37333 65.6769 3.68C65.3835 3.98667 65.1102 4.14 64.8569 4.14C64.6302 4.14 64.3702 3.98667 64.0769 3.68C63.7835 3.37333 63.6369 3.09333 63.6369 2.84ZM65.7569 14.24C65.7569 14.6933 65.9569 14.92 66.3569 14.92C66.6902 14.92 67.0235 14.78 67.3569 14.5L67.7369 15.02C67.3902 15.4067 67.0169 15.7133 66.6169 15.94C66.2169 16.1667 65.8435 16.28 65.4969 16.28C64.9502 16.28 64.5569 16.1133 64.3169 15.78C64.0769 15.4467 63.9569 14.9067 63.9569 14.16V7.96C63.9569 7.8 63.9235 7.68667 63.8569 7.62C63.8035 7.55333 63.7035 7.52 63.5569 7.52H62.6769L62.4969 7C62.8835 6.65333 63.3235 6.36667 63.8169 6.14C64.3102 5.91333 64.7502 5.8 65.1369 5.8C65.3235 5.8 65.4769 5.86 65.5969 5.98C65.7169 6.1 65.7769 6.25333 65.7769 6.44L65.7569 14.24ZM72.1073 12.8C72.1073 13.4267 72.154 13.9267 72.2473 14.3C72.3407 14.6733 72.5073 15.0333 72.7473 15.38L72.9873 15.7L72.7473 16H69.2473L69.0273 15.38L69.4473 15.28C69.7807 15.2 70.0007 15.06 70.1073 14.86C70.2273 14.6467 70.2873 14.2867 70.2873 13.78V8.16C70.2873 8 70.254 7.88667 70.1873 7.82C70.134 7.75333 70.034 7.72 69.8873 7.72H69.0073L68.8273 7.2C69.214 6.85333 69.654 6.56667 70.1473 6.34C70.654 6.11333 71.094 6 71.4673 6C71.654 6 71.8073 6.06 71.9273 6.18C72.0473 6.3 72.1073 6.45333 72.1073 6.64V8.78C72.454 7.91333 72.974 7.2 73.6673 6.64C74.3607 6.08 75.0873 5.8 75.8473 5.8C76.7807 5.8 77.4607 6.08667 77.8873 6.66C78.314 7.23333 78.5273 8.14667 78.5273 9.4V14.24C78.5273 14.6933 78.7273 14.92 79.1273 14.92C79.434 14.92 79.7673 14.78 80.1273 14.5L80.5073 15.02C80.1607 15.4067 79.7873 15.7133 79.3873 15.94C78.9873 16.1667 78.614 16.28 78.2673 16.28C77.7207 16.28 77.3273 16.1133 77.0873 15.78C76.8473 15.4467 76.7273 14.9067 76.7273 14.16V9.4C76.7273 8.04 76.154 7.36 75.0073 7.36C74.434 7.36 73.9273 7.58667 73.4873 8.04C73.0607 8.49333 72.7207 9.13333 72.4673 9.96C72.2273 10.7867 72.1073 11.7333 72.1073 12.8ZM88.9184 14.16C88.3718 14.9333 87.8118 15.48 87.2384 15.8C86.6651 16.12 86.0451 16.28 85.3784 16.28C84.7384 16.28 84.1451 16.1 83.5984 15.74C83.0518 15.3667 82.6118 14.8133 82.2784 14.08C81.9584 13.3467 81.7984 12.46 81.7984 11.42C81.7984 10.2733 82.0051 9.28 82.4184 8.44C82.8451 7.58667 83.4451 6.93333 84.2184 6.48C85.0051 6.02667 85.9251 5.8 86.9784 5.8C87.4984 5.8 88.2318 5.88667 89.1784 6.06C89.9784 6.19333 90.5784 6.27333 90.9784 6.3L91.1984 6.56L90.9584 6.92C90.8651 7.05333 90.7984 7.18 90.7584 7.3C90.7184 7.40667 90.6984 7.54 90.6984 7.7V14.24C90.6984 14.6533 90.8984 14.86 91.2984 14.86C91.6318 14.86 91.9651 14.74 92.2984 14.5L92.6784 15.02C92.3318 15.4067 91.9584 15.7133 91.5584 15.94C91.1584 16.1667 90.7918 16.28 90.4584 16.28C89.9118 16.28 89.5184 16.1133 89.2784 15.78C89.0384 15.4467 88.9184 14.9067 88.9184 14.16ZM83.8984 11.04C83.8984 12.3067 84.1118 13.24 84.5384 13.84C84.9784 14.44 85.5251 14.74 86.1784 14.74C86.7118 14.74 87.2118 14.5933 87.6784 14.3C88.1451 13.9933 88.5584 13.5333 88.9184 12.92V7.52C88.3051 7.10667 87.6518 6.9 86.9584 6.9C85.9851 6.9 85.2318 7.26667 84.6984 8C84.1651 8.72 83.8984 9.73333 83.8984 11.04ZM97.0488 12.8C97.0488 13.4267 97.0954 13.9267 97.1888 14.3C97.2821 14.6733 97.4488 15.0333 97.6888 15.38L97.9288 15.7L97.6888 16H94.1888L93.9688 15.38L94.3888 15.28C94.7221 15.2 94.9421 15.06 95.0488 14.86C95.1688 14.6467 95.2288 14.2867 95.2288 13.78V8.16C95.2288 8 95.1954 7.88667 95.1288 7.82C95.0754 7.75333 94.9754 7.72 94.8288 7.72H93.9488L93.7688 7.2C94.1554 6.85333 94.5954 6.56667 95.0888 6.34C95.5954 6.11333 96.0354 6 96.4088 6C96.5954 6 96.7488 6.06 96.8688 6.18C96.9888 6.3 97.0488 6.45333 97.0488 6.64V8.78C97.3954 7.91333 97.9154 7.2 98.6088 6.64C99.3021 6.08 100.029 5.8 100.789 5.8C101.722 5.8 102.402 6.08667 102.829 6.66C103.255 7.23333 103.469 8.14667 103.469 9.4V14.24C103.469 14.6933 103.669 14.92 104.069 14.92C104.375 14.92 104.709 14.78 105.069 14.5L105.449 15.02C105.102 15.4067 104.729 15.7133 104.329 15.94C103.929 16.1667 103.555 16.28 103.209 16.28C102.662 16.28 102.269 16.1133 102.029 15.78C101.789 15.4467 101.669 14.9067 101.669 14.16V9.4C101.669 8.04 101.095 7.36 99.9488 7.36C99.3754 7.36 98.8688 7.58667 98.4288 8.04C98.0021 8.49333 97.6621 9.13333 97.4088 9.96C97.1688 10.7867 97.0488 11.7333 97.0488 12.8ZM114.54 13.94C114.58 13.9 114.64 13.88 114.72 13.88C114.827 13.88 114.933 13.94 115.04 14.06C115.16 14.18 115.22 14.3067 115.22 14.44C115.22 14.52 115.2 14.58 115.16 14.62C114.693 15.1533 114.147 15.5667 113.52 15.86C112.907 16.14 112.253 16.28 111.56 16.28C110.64 16.28 109.813 16.06 109.08 15.62C108.347 15.1667 107.773 14.5467 107.36 13.76C106.947 12.96 106.74 12.06 106.74 11.06C106.74 10.0067 106.94 9.08667 107.34 8.3C107.74 7.5 108.3 6.88667 109.02 6.46C109.753 6.02 110.607 5.8 111.58 5.8C112.607 5.8 113.447 6.05333 114.1 6.56C114.767 7.05333 115.1 7.69333 115.1 8.48C115.1 9.05333 114.913 9.52667 114.54 9.9C114.18 10.26 113.713 10.44 113.14 10.44C112.887 10.44 112.76 10.3667 112.76 10.22C112.76 10.18 112.807 10.0867 112.9 9.94C112.993 9.79333 113.073 9.61333 113.14 9.4C113.207 9.18667 113.24 8.91333 113.24 8.58C113.24 8.04667 113.067 7.62667 112.72 7.32C112.387 7 111.933 6.84 111.36 6.84C110.6 6.84 109.987 7.21333 109.52 7.96C109.053 8.70667 108.82 9.68667 108.82 10.9C108.82 12.14 109.093 13.1267 109.64 13.86C110.2 14.58 110.953 14.94 111.9 14.94C112.86 14.94 113.74 14.6067 114.54 13.94ZM125.476 14.5C124.982 15.0733 124.396 15.5133 123.716 15.82C123.036 16.1267 122.302 16.28 121.516 16.28C120.596 16.28 119.789 16.0667 119.096 15.64C118.402 15.2133 117.862 14.6133 117.476 13.84C117.102 13.0667 116.916 12.1733 116.916 11.16C116.916 10.0933 117.129 9.16 117.556 8.36C117.982 7.54667 118.582 6.92 119.356 6.48C120.142 6.02667 121.056 5.8 122.096 5.8C122.829 5.8 123.449 5.94 123.956 6.22C124.476 6.48667 124.862 6.84667 125.116 7.3C125.369 7.74 125.496 8.22 125.496 8.74C125.496 9.3 125.342 9.84 125.036 10.36C124.742 10.88 124.309 11.3067 123.736 11.64C123.162 11.96 122.476 12.12 121.676 12.12C121.249 12.12 120.776 12.04 120.256 11.88C119.736 11.72 119.476 11.4867 119.476 11.18C119.476 11.0733 119.502 10.9733 119.556 10.88C119.622 10.7867 119.696 10.74 119.776 10.74C119.816 10.74 119.949 10.7867 120.176 10.88C120.402 10.96 120.696 11 121.056 11C121.856 11 122.476 10.7733 122.916 10.32C123.369 9.86667 123.596 9.33333 123.596 8.72C123.596 8.2 123.429 7.75333 123.096 7.38C122.762 6.99333 122.296 6.8 121.696 6.8C120.842 6.8 120.176 7.18 119.696 7.94C119.216 8.68667 118.976 9.76 118.976 11.16C118.976 12.3467 119.229 13.28 119.736 13.96C120.242 14.6267 120.976 14.96 121.936 14.96C123.109 14.96 124.082 14.58 124.856 13.82C124.909 13.7667 124.969 13.74 125.036 13.74C125.142 13.74 125.256 13.8067 125.376 13.94C125.496 14.06 125.556 14.1867 125.556 14.32C125.556 14.3867 125.529 14.4467 125.476 14.5ZM143.289 5.3C143.289 6.04667 143.109 6.72 142.749 7.32C142.403 7.92 141.883 8.38667 141.189 8.72C142.083 9.01333 142.776 9.46 143.269 10.06C143.776 10.66 144.029 11.3267 144.029 12.06C144.029 13.2733 143.616 14.2333 142.789 14.94C141.963 15.6467 140.643 16 138.829 16H133.249L133.009 15.32L133.469 15.2C133.976 15.0533 134.316 14.86 134.489 14.62C134.663 14.38 134.749 13.9533 134.749 13.34V3.46C134.749 3.28667 134.716 3.16667 134.649 3.1C134.583 3.02 134.469 2.98 134.309 2.98H133.149L132.909 2.24C133.483 2.01333 134.236 1.81333 135.169 1.64C136.103 1.45333 137.003 1.36 137.869 1.36C139.696 1.36 141.056 1.72667 141.949 2.46C142.843 3.19333 143.289 4.14 143.289 5.3ZM136.729 12.34C136.729 13.4333 136.949 14.1467 137.389 14.48C137.829 14.8 138.349 14.96 138.949 14.96C139.883 14.96 140.616 14.6867 141.149 14.14C141.683 13.58 141.949 12.8533 141.949 11.96C141.949 11.4533 141.816 10.9933 141.549 10.58C141.296 10.1533 140.929 9.81333 140.449 9.56C139.969 9.30667 139.409 9.18 138.769 9.18C138.543 9.18 138.303 9.15333 138.049 9.1C137.809 9.04667 137.616 8.98667 137.469 8.92C137.269 8.82667 137.169 8.68 137.169 8.48C137.169 8.24 137.263 8.12 137.449 8.12C137.503 8.12 137.609 8.14667 137.769 8.2C137.943 8.24 138.169 8.26 138.449 8.26C139.356 8.26 140.056 7.99333 140.549 7.46C141.056 6.92667 141.309 6.22 141.309 5.34C141.309 4.5 141.023 3.81333 140.449 3.28C139.889 2.74667 139.096 2.48 138.069 2.48C137.176 2.48 136.729 2.78667 136.729 3.4V12.34ZM153.157 14.16C152.61 14.9333 152.05 15.48 151.477 15.8C150.903 16.12 150.283 16.28 149.617 16.28C148.977 16.28 148.383 16.1 147.837 15.74C147.29 15.3667 146.85 14.8133 146.517 14.08C146.197 13.3467 146.037 12.46 146.037 11.42C146.037 10.2733 146.243 9.28 146.657 8.44C147.083 7.58667 147.683 6.93333 148.457 6.48C149.243 6.02667 150.163 5.8 151.217 5.8C151.737 5.8 152.47 5.88667 153.417 6.06C154.217 6.19333 154.817 6.27333 155.217 6.3L155.437 6.56L155.197 6.92C155.103 7.05333 155.037 7.18 154.997 7.3C154.957 7.40667 154.937 7.54 154.937 7.7V14.24C154.937 14.6533 155.137 14.86 155.537 14.86C155.87 14.86 156.203 14.74 156.537 14.5L156.917 15.02C156.57 15.4067 156.197 15.7133 155.797 15.94C155.397 16.1667 155.03 16.28 154.697 16.28C154.15 16.28 153.757 16.1133 153.517 15.78C153.277 15.4467 153.157 14.9067 153.157 14.16ZM148.137 11.04C148.137 12.3067 148.35 13.24 148.777 13.84C149.217 14.44 149.763 14.74 150.417 14.74C150.95 14.74 151.45 14.5933 151.917 14.3C152.383 13.9933 152.797 13.5333 153.157 12.92V7.52C152.543 7.10667 151.89 6.9 151.197 6.9C150.223 6.9 149.47 7.26667 148.937 8C148.403 8.72 148.137 9.73333 148.137 11.04ZM161.287 12.8C161.287 13.4267 161.334 13.9267 161.427 14.3C161.52 14.6733 161.687 15.0333 161.927 15.38L162.167 15.7L161.927 16H158.427L158.207 15.38L158.627 15.28C158.96 15.2 159.18 15.06 159.287 14.86C159.407 14.6467 159.467 14.2867 159.467 13.78V8.16C159.467 8 159.434 7.88667 159.367 7.82C159.314 7.75333 159.214 7.72 159.067 7.72H158.187L158.007 7.2C158.394 6.85333 158.834 6.56667 159.327 6.34C159.834 6.11333 160.274 6 160.647 6C160.834 6 160.987 6.06 161.107 6.18C161.227 6.3 161.287 6.45333 161.287 6.64V8.78C161.634 7.91333 162.154 7.2 162.847 6.64C163.54 6.08 164.267 5.8 165.027 5.8C165.96 5.8 166.64 6.08667 167.067 6.66C167.494 7.23333 167.707 8.14667 167.707 9.4V14.24C167.707 14.6933 167.907 14.92 168.307 14.92C168.614 14.92 168.947 14.78 169.307 14.5L169.687 15.02C169.34 15.4067 168.967 15.7133 168.567 15.94C168.167 16.1667 167.794 16.28 167.447 16.28C166.9 16.28 166.507 16.1133 166.267 15.78C166.027 15.4467 165.907 14.9067 165.907 14.16V9.4C165.907 8.04 165.334 7.36 164.187 7.36C163.614 7.36 163.107 7.58667 162.667 8.04C162.24 8.49333 161.9 9.13333 161.647 9.96C161.407 10.7867 161.287 11.7333 161.287 12.8ZM175.138 11.28C174.885 11.2133 174.758 11.0733 174.758 10.86C174.758 10.7533 174.778 10.6667 174.818 10.6C174.871 10.52 174.951 10.48 175.058 10.48C175.098 10.48 175.231 10.5133 175.458 10.58C175.685 10.6333 175.978 10.66 176.338 10.66C176.831 10.66 177.251 10.56 177.598 10.36C177.945 10.16 178.205 9.9 178.378 9.58C178.551 9.26 178.638 8.93333 178.638 8.6C178.638 8.2 178.518 7.86667 178.278 7.6C178.051 7.32 177.725 7.18 177.298 7.18C176.645 7.18 176.071 7.41333 175.578 7.88C175.085 8.34667 174.705 9.00667 174.438 9.86C174.185 10.7133 174.058 11.6933 174.058 12.8C174.058 13.44 174.105 13.9533 174.198 14.34C174.291 14.7133 174.458 15.06 174.698 15.38L174.938 15.7L174.698 16H171.198L170.978 15.38L171.398 15.28C171.731 15.2 171.951 15.06 172.058 14.86C172.178 14.6467 172.238 14.2867 172.238 13.78V2.52C172.238 2.36 172.205 2.24667 172.138 2.18C172.085 2.11333 171.985 2.08 171.838 2.08H170.958L170.778 1.56C171.165 1.21333 171.605 0.926666 172.098 0.699999C172.605 0.473332 173.045 0.359999 173.418 0.359999C173.605 0.359999 173.758 0.419999 173.878 0.539999C173.998 0.659999 174.058 0.813332 174.058 0.999999V8.78C174.391 7.9 174.891 7.18667 175.558 6.64C176.238 6.08 176.945 5.8 177.678 5.8C178.558 5.8 179.238 6.05333 179.718 6.56C180.198 7.06667 180.438 7.68667 180.438 8.42C180.438 8.88667 180.318 9.34667 180.078 9.8C179.851 10.24 179.511 10.62 179.058 10.94C178.618 11.2467 178.091 11.4333 177.478 11.5L179.038 14.46C179.145 14.6733 179.265 14.82 179.398 14.9C179.531 14.98 179.691 15.02 179.878 15.02C180.051 15.02 180.231 14.9733 180.418 14.88C180.605 14.7867 180.778 14.66 180.938 14.5L181.358 15.02C180.745 15.86 180.031 16.28 179.218 16.28C178.818 16.28 178.478 16.2 178.198 16.04C177.931 15.88 177.698 15.66 177.498 15.38C177.311 15.1 177.078 14.6933 176.798 14.16L175.318 11.34L175.138 11.28ZM196.166 15.32L196.626 15.2C196.946 15.12 197.172 15.0133 197.306 14.88C197.452 14.7467 197.526 14.56 197.526 14.32C197.526 14.1067 197.452 13.78 197.306 13.34L196.346 10.54H191.726L191.246 12C190.939 12.92 190.786 13.62 190.786 14.1C190.786 14.5533 190.879 14.96 191.066 15.32L191.246 15.68L190.866 16H187.186L186.946 15.32L187.406 15.2C187.939 15.0533 188.326 14.86 188.566 14.62C188.806 14.38 189.032 13.9533 189.246 13.34L192.386 4.3C192.532 3.86 192.606 3.53333 192.606 3.32C192.606 3.08 192.532 2.89333 192.386 2.76C192.252 2.62667 192.026 2.52 191.706 2.44L191.246 2.32L191.486 1.64H195.346L199.366 13.24C199.579 13.8533 199.812 14.32 200.066 14.64C200.319 14.96 200.686 15.3067 201.166 15.68L200.906 16H196.406L196.166 15.32ZM192.146 9.3H195.926L194.006 3.7L192.146 9.3ZM205.247 7.06C206.113 6.22 207.073 5.8 208.127 5.8C208.953 5.8 209.687 6.00667 210.327 6.42C210.98 6.83333 211.487 7.40667 211.847 8.14C212.207 8.87333 212.387 9.70667 212.387 10.64C212.387 11.7067 212.193 12.6733 211.807 13.54C211.433 14.3933 210.913 15.0667 210.247 15.56C209.58 16.04 208.827 16.28 207.987 16.28C207.2 16.28 206.533 16.1 205.987 15.74C205.867 15.66 205.807 15.54 205.807 15.38C205.807 15.2467 205.827 15.1333 205.867 15.04C205.92 14.9333 206 14.88 206.107 14.88C206.16 14.88 206.307 14.9333 206.547 15.04C206.8 15.1467 207.127 15.2 207.527 15.2C208.047 15.2 208.513 15.02 208.927 14.66C209.353 14.3 209.68 13.8067 209.907 13.18C210.147 12.54 210.267 11.8267 210.267 11.04C210.267 10.28 210.147 9.60667 209.907 9.02C209.68 8.42 209.353 7.95333 208.927 7.62C208.513 7.28667 208.033 7.12 207.487 7.12C206.673 7.12 205.927 7.38 205.247 7.9V19.1C205.247 19.6067 205.3 19.96 205.407 20.16C205.527 20.3733 205.753 20.52 206.087 20.6L206.507 20.7L206.287 21.32H202.807L202.567 21.02L202.807 20.7C203.047 20.3533 203.213 19.9933 203.307 19.62C203.4 19.2467 203.447 18.7467 203.447 18.12V8.38C203.447 8.16667 203.413 8.01333 203.347 7.92C203.293 7.82667 203.187 7.76 203.027 7.72L201.987 7.5V6.84C202.2 6.65333 202.607 6.47333 203.207 6.3C203.807 6.12667 204.327 6.04 204.767 6.04C205.087 6.04 205.247 6.34667 205.247 6.96V7.06ZM217.141 7.06C218.008 6.22 218.968 5.8 220.021 5.8C220.848 5.8 221.581 6.00667 222.221 6.42C222.875 6.83333 223.381 7.40667 223.741 8.14C224.101 8.87333 224.281 9.70667 224.281 10.64C224.281 11.7067 224.088 12.6733 223.701 13.54C223.328 14.3933 222.808 15.0667 222.141 15.56C221.475 16.04 220.721 16.28 219.881 16.28C219.095 16.28 218.428 16.1 217.881 15.74C217.761 15.66 217.701 15.54 217.701 15.38C217.701 15.2467 217.721 15.1333 217.761 15.04C217.815 14.9333 217.895 14.88 218.001 14.88C218.055 14.88 218.201 14.9333 218.441 15.04C218.695 15.1467 219.021 15.2 219.421 15.2C219.941 15.2 220.408 15.02 220.821 14.66C221.248 14.3 221.575 13.8067 221.801 13.18C222.041 12.54 222.161 11.8267 222.161 11.04C222.161 10.28 222.041 9.60667 221.801 9.02C221.575 8.42 221.248 7.95333 220.821 7.62C220.408 7.28667 219.928 7.12 219.381 7.12C218.568 7.12 217.821 7.38 217.141 7.9V19.1C217.141 19.6067 217.195 19.96 217.301 20.16C217.421 20.3733 217.648 20.52 217.981 20.6L218.401 20.7L218.181 21.32H214.701L214.461 21.02L214.701 20.7C214.941 20.3533 215.108 19.9933 215.201 19.62C215.295 19.2467 215.341 18.7467 215.341 18.12V8.38C215.341 8.16667 215.308 8.01333 215.241 7.92C215.188 7.82667 215.081 7.76 214.921 7.72L213.881 7.5V6.84C214.095 6.65333 214.501 6.47333 215.101 6.3C215.701 6.12667 216.221 6.04 216.661 6.04C216.981 6.04 217.141 6.34667 217.141 6.96V7.06Z" fill="white"/>
</svg>
