<svg width="28" height="28" viewBox="0 0 28 28" fill="none" xmlns="http://www.w3.org/2000/svg">
<path d="M14 28C21.732 28 28 21.732 28 14C28 6.26801 21.732 0 14 0C6.26801 0 0 6.26801 0 14C0 21.732 6.26801 28 14 28Z" fill="white"/>
<path d="M14 27.25C21.3178 27.25 27.25 21.3178 27.25 14C27.25 6.68223 21.3178 0.75 14 0.75C6.68223 0.75 0.75 6.68223 0.75 14C0.75 21.3178 6.68223 27.25 14 27.25Z" stroke="#294C81" stroke-width="1.5"/>
<path d="M19.0833 17.3333C19.0833 17.5764 18.9868 17.8096 18.8148 17.9815C18.6429 18.1534 18.4098 18.25 18.1667 18.25H9.91667C9.67355 18.25 9.44039 18.1534 9.26849 17.9815C9.09658 17.8096 9 17.5764 9 17.3333V12.2917C9 12.0486 9.09658 11.8154 9.26849 11.6435C9.44039 11.4716 9.67355 11.375 9.91667 11.375H11.75L12.6667 10H15.4167L16.3333 11.375H18.1667C18.4098 11.375 18.6429 11.4716 18.8148 11.6435C18.9868 11.8154 19.0833 12.0486 19.0833 12.2917V17.3333Z" stroke="#294C81" stroke-linecap="round" stroke-linejoin="round"/>
<path d="M14.0423 16.4167C15.0548 16.4167 15.8757 15.5959 15.8757 14.5833C15.8757 13.5708 15.0548 12.75 14.0423 12.75C13.0298 12.75 12.209 13.5708 12.209 14.5833C12.209 15.5959 13.0298 16.4167 14.0423 16.4167Z" stroke="#294C81" stroke-linecap="round" stroke-linejoin="round"/>
</svg>
