<svg width="24" height="24" viewBox="0 0 24 24" fill="none" xmlns="http://www.w3.org/2000/svg">
<path d="M23.5969 10.6627L21.5694 8.71909V2.27422C21.5694 1.86415 21.2534 1.53166 20.8636 1.53166H15.9832C15.5935 1.53166 15.2774 1.8641 15.2774 2.27422V2.6872L12.8289 0.339867C12.3562 -0.113305 11.6435 -0.113256 11.1711 0.339817L0.403024 10.6628C0.0244616 11.0257 -0.100648 11.585 0.084321 12.0875C0.269337 12.59 0.719805 12.9146 1.23201 12.9146H2.95181V23.2574C2.95181 23.6675 3.26779 24 3.6576 24H9.55977C9.94954 24 10.2656 23.6675 10.2656 23.2574V16.9776H13.7344V23.2574C13.7344 23.6675 14.0504 24 14.4402 24H20.3421C20.7319 24 21.0479 23.6676 21.0479 23.2574V12.9147H22.768C23.2802 12.9147 23.7307 12.59 23.9157 12.0875C24.1006 11.585 23.9756 11.0257 23.5969 10.6627ZM20.3421 11.4295C19.9523 11.4295 19.6363 11.762 19.6363 12.1721V22.5149H15.146V16.235C15.146 15.8249 14.83 15.4925 14.4402 15.4925H9.55977C9.17001 15.4925 8.85398 15.8249 8.85398 16.235V22.5149H4.36335V12.1721C4.36335 11.762 4.04737 11.4295 3.65756 11.4295H1.69898L12 1.55434L15.508 4.9173C15.7146 5.11536 16.0129 5.1664 16.2685 5.0477C16.5241 4.92885 16.6891 4.66244 16.6891 4.36841V3.01678H20.1579V9.04704C20.1579 9.256 20.2416 9.45519 20.3884 9.59594L22.301 11.4295H20.3421Z" fill="#031A6E"/>
</svg>
