<svg width="73" height="84" viewBox="0 0 73 84" fill="none" xmlns="http://www.w3.org/2000/svg">
<path d="M32.3749 77H9.62525C4.31563 77 0 72.685 0 67.3754V9.62524C0 4.31562 4.31563 0 9.62525 0H46.3754C51.685 0 56 4.31562 56 9.62524V35.8753C56 37.3243 54.824 38.5003 53.375 38.5003C51.926 38.5003 50.75 37.3243 50.75 35.8753V9.62524C50.75 7.21364 48.787 5.25001 46.3754 5.25001H9.62525C7.21365 5.25001 5.25002 7.21364 5.25002 9.62524V67.3754C5.25002 69.787 7.21365 71.75 9.62525 71.75H32.3749C33.8239 71.75 34.9999 72.926 34.9999 74.375C34.9999 75.824 33.8239 77 32.3749 77Z" fill="#345C72"/>
<path d="M13 44C11.344 44 10 42.824 10 41.375V32.625C10 31.176 11.344 30 13 30C14.656 30 16 31.176 16 32.625V41.375C16 42.824 14.656 44 13 44Z" fill="#85A6BB"/>
<path d="M46.75 82.75H69.25C70.63 82.75 71.75 81.63 71.75 80.25V62.75C71.75 61.37 70.63 60.25 69.25 60.25H46.75C45.37 60.25 44.25 61.37 44.25 62.75V80.25C44.25 81.63 45.37 82.75 46.75 82.75Z" fill="#FFC107"/>
<path fill-rule="evenodd" clip-rule="evenodd" d="M69.25 84H46.75C44.6833 84 43 82.3185 43 80.25V62.75C43 60.6815 44.6833 59 46.75 59H69.25C71.3167 59 73 60.6815 73 62.75V80.25C73 82.3185 71.3167 84 69.25 84ZM70.5 62.75C70.5 62.06 69.9385 61.5 69.25 61.5H46.75C46.0615 61.5 45.5 62.06 45.5 62.75V80.25C45.5 80.94 46.0615 81.5 46.75 81.5H69.25C69.9385 81.5 70.5 80.94 70.5 80.25V62.75Z" fill="#FFC107"/>
<path fill-rule="evenodd" clip-rule="evenodd" d="M69.25 84H46.75C44.6833 84 43 82.3185 43 80.25V62.75C43 60.6815 44.6833 59 46.75 59H69.25C71.3167 59 73 60.6815 73 62.75V80.25C73 82.3185 71.3167 84 69.25 84ZM70.5 62.75C70.5 62.06 69.9385 61.5 69.25 61.5H46.75C46.0615 61.5 45.5 62.06 45.5 62.75V80.25C45.5 80.94 46.0615 81.5 46.75 81.5H69.25C69.9385 81.5 70.5 80.94 70.5 80.25V62.75Z" fill="black"/>
<path d="M66.75 61.5C67.44 61.5 68 60.94 68 60.25V54C68 48.4849 63.5151 44 58 44C52.4849 44 48 48.4849 48 54C48 54.69 48.56 55.25 49.25 55.25C49.94 55.25 50.5 54.69 50.5 54C50.5 49.8649 53.8649 46.5 58 46.5C62.1351 46.5 65.5 49.8649 65.5 54V60.25C65.5 60.94 66.06 61.5 66.75 61.5Z" fill="black"/>
</svg>
