<svg width="25" height="24" viewBox="0 0 25 24" fill="none" xmlns="http://www.w3.org/2000/svg">
<path d="M5.73585 11H13.5753V13H5.73585V16L0.836182 12L5.73585 8V11ZM4.75591 18H7.40957C8.54109 19.0183 9.93651 19.6819 11.4284 19.9109C12.9203 20.14 14.4453 19.9249 15.8203 19.2915C17.1954 18.6581 18.3622 17.6332 19.1806 16.3398C19.999 15.0465 20.4344 13.5396 20.4344 12C20.4344 10.4604 19.999 8.95354 19.1806 7.66019C18.3622 6.36683 17.1954 5.34194 15.8203 4.7085C14.4453 4.07506 12.9203 3.85997 11.4284 4.08906C9.93651 4.31814 8.54109 4.98166 7.40957 6H4.75591C5.98994 4.32094 7.71038 3.08067 9.67354 2.45486C11.6367 1.82906 13.743 1.84946 15.6942 2.51317C17.6454 3.17687 19.3424 4.45024 20.545 6.1529C21.7476 7.85555 22.3947 9.90118 22.3947 12C22.3947 14.0988 21.7476 16.1444 20.545 17.8471C19.3424 19.5498 17.6454 20.8231 15.6942 21.4868C13.743 22.1505 11.6367 22.1709 9.67354 21.5451C7.71038 20.9193 5.98994 19.6791 4.75591 18Z" fill="#251F68"/>
</svg>
