<svg width="24" height="24" viewBox="0 0 24 24" fill="none" xmlns="http://www.w3.org/2000/svg">
<g clip-path="url(#clip0)">
<path d="M21.8882 9.90202C22.2765 9.90202 22.5913 9.5872 22.5913 9.19889V3.54023C22.5913 1.59502 21.0107 4.6875e-05 19.0492 4.6875e-05C18.5517 4.6875e-05 5.41812 0 4.9234 0C2.9853 0 1.40857 1.57678 1.40857 3.51487V23.2842C1.40857 23.9139 2.18219 24.2272 2.61954 23.7705L3.51907 22.8311L4.46927 23.7814C4.74387 24.0559 5.18899 24.0559 5.46358 23.7815L6.36401 22.8813L7.27366 23.7834C7.54774 24.0552 7.98973 24.0553 8.26385 23.7835L9.18785 22.8674L10.1122 23.7836C10.3861 24.0552 10.8276 24.0552 11.1018 23.784L12.286 22.6122C13.3693 23.4801 14.7428 24 16.2356 24C19.725 24 22.5638 21.1612 22.5638 17.6719C22.5638 14.4128 20.0871 11.7215 16.9171 11.3805V9.90202H21.8882ZM21.185 3.54023V8.49577H16.9171V3.54023C16.9171 2.36353 17.8744 1.40625 19.0511 1.40625C20.2277 1.40625 21.185 2.36353 21.185 3.54023ZM10.6076 22.2946L9.68276 21.378C9.40863 21.1063 8.96684 21.1064 8.69276 21.378L7.76895 22.294L6.85723 21.3899C6.5823 21.1172 6.13877 21.1181 5.86502 21.3918L4.96666 22.2899L4.0054 21.3287C3.7181 21.0414 3.26562 21.0626 3.00035 21.3396L2.81482 21.5333V3.51487C2.81482 2.35219 3.76071 1.40625 4.9234 1.40625H16.2285C15.7784 2.00006 15.5108 2.73938 15.5108 3.54023V11.3855C10.5759 11.9509 8.20296 17.7549 11.292 21.6174L10.6076 22.2946ZM21.1575 17.6719C21.1575 20.3858 18.9496 22.5938 16.2356 22.5938C13.5217 22.5938 11.3138 20.3858 11.3138 17.6719C11.3138 14.958 13.5217 12.75 16.2356 12.75C18.9496 12.75 21.1575 14.958 21.1575 17.6719Z" fill="#031A6E"/>
<path d="M15.767 15.7201V17.1562H14.3437C13.9554 17.1562 13.6406 17.4711 13.6406 17.8594C13.6406 18.2477 13.9554 18.5625 14.3437 18.5625H16.4701C16.8584 18.5625 17.1732 18.2477 17.1732 17.8594V15.7201C17.1732 15.3318 16.8584 15.017 16.4701 15.017C16.0818 15.017 15.767 15.3318 15.767 15.7201Z" fill="#031A6E"/>
<path d="M8.48425 12.0038H4.96863C4.58031 12.0038 4.2655 12.3186 4.2655 12.7069C4.2655 13.0952 4.58031 13.41 4.96863 13.41H8.48425C8.87256 13.41 9.18737 13.0952 9.18737 12.7069C9.18737 12.3186 8.87256 12.0038 8.48425 12.0038Z" fill="#031A6E"/>
<path d="M8.48428 14.821H4.96631C4.578 14.821 4.26318 15.1359 4.26318 15.5242C4.26318 15.9125 4.578 16.2273 4.96631 16.2273H8.48428C8.8726 16.2273 9.18741 15.9125 9.18741 15.5242C9.18741 15.1359 8.8726 14.821 8.48428 14.821Z" fill="#031A6E"/>
<path d="M8.4843 17.6287H4.96399C4.57568 17.6287 4.26086 17.9435 4.26086 18.3318C4.26086 18.7201 4.57568 19.0349 4.96399 19.0349H8.4843C8.87261 19.0349 9.18743 18.7201 9.18743 18.3318C9.18743 17.9435 8.87261 17.6287 8.4843 17.6287Z" fill="#031A6E"/>
<path d="M7.81867 10V7.53H7.23867V6.79H7.81867V6.07H7.23867V5.33H7.81867V2.86H9.38867L10.1687 5.33H11.0787V2.86H12.1887V5.33H12.7587V6.07H12.1887V6.79H12.7587V7.53H12.1887V10H10.6087L9.80867 7.53H8.92867V10H7.81867ZM8.88867 5.33H9.16867L8.87867 4.37H8.83867L8.88867 5.33ZM8.92867 6.79H9.58867L9.36867 6.07H8.90867L8.92867 6.79ZM10.6387 6.79H11.0987L11.0787 6.07H10.4087L10.6387 6.79ZM11.1087 8.44H11.1587L11.1187 7.53H10.8487L11.1087 8.44Z" fill="#031A6E"/>
</g>
<defs>
<clipPath id="clip0">
<rect width="24" height="24" fill="white"/>
</clipPath>
</defs>
</svg>
