<svg width="24" height="24" viewBox="0 0 24 24" fill="none" xmlns="http://www.w3.org/2000/svg">
<g clip-path="url(#clip0)">
<path d="M24 19.19L17.9575 15.3827C18.5305 14.3811 18.8582 13.2222 18.8582 11.9881C18.8582 10.9096 18.6077 9.88861 18.1624 8.97986V6.7923C18.1624 4.19183 16.0466 2.07623 13.4462 2.07623H7.59595V0L0 4.78619L6.04248 8.59351C5.46954 9.59509 5.14178 10.754 5.14178 11.9881C5.14178 13.0666 5.39227 14.0876 5.83777 14.9963V17.1839C5.83777 19.7844 7.95337 21.9 10.5538 21.9H16.4042V23.9762L24 19.19ZM6.54932 11.9881C6.54932 8.9826 8.99451 6.53741 12 6.53741C15.0055 6.53741 17.4507 8.9826 17.4507 11.9881C17.4507 14.9936 15.0055 17.4388 12 17.4388C8.99451 17.4388 6.54932 14.9936 6.54932 11.9881ZM6.18823 7.02155L2.64056 4.78619L6.18823 2.55066V3.48376H13.4462C15.2704 3.48376 16.7547 4.96802 16.7547 6.7923V7.05029C15.5209 5.86176 13.8444 5.1297 12 5.1297C10.725 5.1297 9.53046 5.47998 8.50653 6.08844H6.18823V7.02155ZM7.2453 16.9259C8.47925 18.1143 10.1556 18.8463 12 18.8463C13.275 18.8463 14.4697 18.4962 15.4935 17.8876H17.8118V16.9547L21.3594 19.19L17.8118 21.4255V20.4924H10.5538C8.72955 20.4924 7.2453 19.0082 7.2453 17.1839V16.9259Z" fill="#031A6E"/>
<path d="M9.81867 16V13.53H9.23867V12.79H9.81867V12.07H9.23867V11.33H9.81867V8.86H11.3887L12.1687 11.33H13.0787V8.86H14.1887V11.33H14.7587V12.07H14.1887V12.79H14.7587V13.53H14.1887V16H12.6087L11.8087 13.53H10.9287V16H9.81867ZM10.8887 11.33H11.1687L10.8787 10.37H10.8387L10.8887 11.33ZM10.9287 12.79H11.5887L11.3687 12.07H10.9087L10.9287 12.79ZM12.6387 12.79H13.0987L13.0787 12.07H12.4087L12.6387 12.79ZM13.1087 14.44H13.1587L13.1187 13.53H12.8487L13.1087 14.44Z" fill="#031A6E"/>
</g>
<defs>
<clipPath id="clip0">
<rect width="24" height="24" fill="white"/>
</clipPath>
</defs>
</svg>
