<svg width="24" height="24" viewBox="0 0 24 24" fill="none" xmlns="http://www.w3.org/2000/svg">
<g clip-path="url(#clip0)">
<path d="M23 2.95825H14L17.1 -0.148226C17.3 -0.348643 17.3 -0.649269 17.1 -0.849687C16.9 -1.0501 16.6 -1.0501 16.4 -0.849687L12.6 2.95825H11.5L7.6 -0.849687C7.4 -1.0501 7.1 -1.0501 6.9 -0.849687C6.7 -0.649269 6.7 -0.348643 6.9 -0.148226L10 2.95825H1C0.4 2.95825 0 3.35908 0 3.96033V21.9979C0 22.5992 0.4 23 1 23H23C23.6 23 24 22.5992 24 21.9979V3.96033C24 3.35908 23.6 2.95825 23 2.95825ZM22 20.9958H2V4.96242H22V20.9958Z" fill="#031A6E"/>
<path d="M20 7.96865C20.5523 7.96865 21 7.52 21 6.96657C21 6.41313 20.5523 5.96448 20 5.96448C19.4477 5.96448 19 6.41313 19 6.96657C19 7.52 19.4477 7.96865 20 7.96865Z" fill="#031A6E"/>
<path d="M20 10.9749C20.5523 10.9749 21 10.5262 21 9.97279C21 9.41935 20.5523 8.9707 20 8.9707C19.4477 8.9707 19 9.41935 19 9.97279C19 10.5262 19.4477 10.9749 20 10.9749Z" fill="#031A6E"/>
<path d="M20 13.9811C20.5523 13.9811 21 13.5325 21 12.979C21 12.4256 20.5523 11.9769 20 11.9769C19.4477 11.9769 19 12.4256 19 12.979C19 13.5325 19.4477 13.9811 20 13.9811Z" fill="#031A6E"/>
<path d="M16 5.96448H5C3.9 5.96448 3 6.86636 3 7.96865V17.9895C3 19.0918 3.9 19.9937 5 19.9937H16C17.1 19.9937 18 19.0918 18 17.9895V7.96865C18 6.86636 17.1 5.96448 16 5.96448ZM17 17.9895C17 18.5908 16.6 18.9916 16 18.9916H5C4.4 18.9916 4 18.5908 4 17.9895V7.96865C4 7.3674 4.4 6.96657 5 6.96657H16C16.6 6.96657 17 7.3674 17 7.96865V17.9895Z" fill="#031A6E"/>
</g>
<defs>
<clipPath id="clip0">
<rect width="24" height="24" fill="white"/>
</clipPath>
</defs>
</svg>
