<svg width="24" height="24" viewBox="0 0 24 24" fill="none" xmlns="http://www.w3.org/2000/svg">
<path d="M9.53512 7.99913C9.39065 8.31237 9.35834 8.66577 9.44363 9.00001H12.3427C12.4354 8.63847 12.3896 8.25536 12.2143 7.92584C12.0391 7.59633 11.747 7.34418 11.3955 7.21885C11.0439 7.09353 10.6583 7.10408 10.3141 7.24844C9.96991 7.39279 9.69209 7.66053 9.53512 7.99913Z" fill="#031A6E"/>
<path d="M5.25003 18.75V18.5002C4.82064 18.5428 4.3964 18.627 3.98328 18.7515C4.41708 18.8788 4.86193 18.9649 5.3119 19.0087C5.26769 18.9299 5.24626 18.8403 5.25003 18.75Z" fill="#031A6E"/>
<path d="M8.63625 19.8449C8.26125 19.8648 7.8765 19.8749 7.5 19.8749C6.5625 19.8749 4.76662 19.8217 3.75 19.4519V20.5267C4.04287 20.7082 5.32012 20.9999 7.5 20.9999C9.67987 20.9999 10.9571 20.7082 11.25 20.5267V19.8187C10.7692 19.8524 10.2716 19.8749 9.75 19.8749C9.38325 19.8749 9.00863 19.8644 8.63625 19.8449Z" fill="#031A6E"/>
<path d="M16.6388 8.99992C16.4315 8.51036 16.3306 7.98231 16.3429 7.4508L8.29692 3.70081C7.59074 4.32984 6.67087 4.66522 5.72554 4.6383L4.50867 7.25018C4.94643 7.7467 5.24457 8.3505 5.37267 8.99992H8.67492C8.60149 8.55265 8.66434 8.09363 8.85529 7.68255C9.08625 7.1917 9.48676 6.80081 9.98309 6.58187C10.4794 6.36293 11.0381 6.33068 11.5564 6.49105C12.0746 6.65142 12.5174 6.99361 12.8033 7.45462C13.0892 7.91564 13.199 8.46442 13.1123 8.99992H16.6388Z" fill="#031A6E"/>
<path d="M19.125 16.5C19.3321 16.5 19.5 16.3321 19.5 16.125C19.5 15.9179 19.3321 15.75 19.125 15.75C18.9179 15.75 18.75 15.9179 18.75 16.125C18.75 16.3321 18.9179 16.5 19.125 16.5Z" fill="#031A6E"/>
<path d="M2.44495 9.00007H4.60345C4.47085 8.464 4.19229 7.97516 3.7987 7.58782C3.74352 7.53357 3.70648 7.46358 3.69264 7.38745C3.67881 7.31131 3.68887 7.23276 3.72145 7.16257L5.15395 4.08757C5.18656 4.01691 5.24048 3.95823 5.30814 3.91976C5.37579 3.8813 5.45379 3.86497 5.5312 3.87307C5.97587 3.91795 6.42494 3.86173 6.84483 3.70861C7.26471 3.55549 7.64455 3.30943 7.95595 2.98882C8.01028 2.93341 8.08048 2.89622 8.15685 2.88238C8.23321 2.86854 8.312 2.87874 8.38232 2.91157L16.8911 6.87907C16.9611 6.91183 17.0193 6.96545 17.0577 7.03258C17.0961 7.09971 17.1129 7.17708 17.1056 7.25407C17.0474 7.85969 17.1749 8.46868 17.4712 9.00007H18.9989L19.5937 7.72507L5.99732 1.38757L2.44495 9.00007Z" fill="#031A6E"/>
<path d="M8.25 17.9478C7.77075 17.9823 7.26675 17.9999 6.75 17.9999C6.50325 17.9999 6.25087 17.9887 6 17.98V18.6505C6.216 18.7799 7.03425 19.0154 8.64375 19.0953C9.02225 19.115 9.391 19.1249 9.75 19.1249C10.3875 19.1249 11.025 19.0968 11.5901 19.0439C12.8085 18.9314 13.3406 18.7439 13.5 18.6494V17.5769C12.4834 17.9467 10.6875 17.9999 9.75 17.9999C9.23362 17.9999 8.72962 17.9823 8.25 17.9478Z" fill="#031A6E"/>
<path d="M22.5 15.375C22.5 15.0766 22.3815 14.7905 22.1705 14.5795C21.9595 14.3685 21.6734 14.25 21.375 14.25H18.375C18.0766 14.25 17.7905 14.3685 17.5795 14.5795C17.3685 14.7905 17.25 15.0766 17.25 15.375V16.875C17.25 17.1734 17.3685 17.4595 17.5795 17.6705C17.7905 17.8815 18.0766 18 18.375 18H21.375C21.6734 18 21.9595 17.8815 22.1705 17.6705C22.3815 17.4595 22.5 17.1734 22.5 16.875V15.375ZM19.125 17.25C18.9025 17.25 18.685 17.184 18.5 17.0604C18.315 16.9368 18.1708 16.7611 18.0856 16.5555C18.0005 16.35 17.9782 16.1238 18.0216 15.9055C18.065 15.6873 18.1722 15.4868 18.3295 15.3295C18.4868 15.1722 18.6873 15.065 18.9055 15.0216C19.1238 14.9782 19.35 15.0005 19.5555 15.0856C19.7611 15.1708 19.9368 15.315 20.0604 15.5C20.184 15.685 20.25 15.9025 20.25 16.125C20.25 16.4234 20.1315 16.7095 19.9205 16.9205C19.7095 17.1315 19.4234 17.25 19.125 17.25Z" fill="#031A6E"/>
<path d="M3.74999 15.0001V14.8704C3.57579 14.9042 3.40375 14.9483 3.23474 15.0024C3.41082 15.0577 3.59 15.1027 3.77137 15.137C3.75783 15.0926 3.75063 15.0465 3.74999 15.0001Z" fill="#031A6E"/>
<path d="M11.2499 16.875C11.2561 16.9943 11.2179 17.1117 11.1427 17.2046C11.8613 17.1761 12.5743 17.0655 13.2678 16.875C12.6098 16.6907 11.9327 16.5829 11.2499 16.5536V16.875Z" fill="#031A6E"/>
<path d="M1.5 10.125V22.125C1.5 22.2245 1.53951 22.3198 1.60984 22.3902C1.68016 22.4605 1.77554 22.5 1.875 22.5H19.875C19.9745 22.5 20.0698 22.4605 20.1402 22.3902C20.2105 22.3198 20.25 22.2245 20.25 22.125V18.75H18.375C17.8779 18.7494 17.4013 18.5517 17.0498 18.2002C16.6983 17.8487 16.5006 17.3721 16.5 16.875V15.375C16.5006 14.8779 16.6983 14.4013 17.0498 14.0498C17.4013 13.6983 17.8779 13.5006 18.375 13.5H20.25V10.125C20.25 10.0255 20.2105 9.93016 20.1402 9.85983C20.0698 9.78951 19.9745 9.75 19.875 9.75H1.875C1.77554 9.75 1.68016 9.78951 1.60984 9.85983C1.53951 9.93016 1.5 10.0255 1.5 10.125ZM2.25 15C2.25 14.571 2.7075 14.2984 3.75 14.1068V13.125C3.75 12.7875 4.18837 12 8.25 12C9.603 12 12.75 12.1095 12.75 13.125V15C12.75 15.3818 12.3851 15.6375 11.5729 15.825C14.2448 16.05 14.25 16.6624 14.25 16.875V18.75C14.25 18.9784 14.2444 19.5 12 19.7546V20.625C12 21.6405 8.853 21.75 7.5 21.75C6.147 21.75 3 21.6405 3 20.625V18.75C3 18.5546 3 18.1459 4.40213 17.8714C2.25563 17.6175 2.25 17.0726 2.25 16.875V15Z" fill="#031A6E"/>
<path d="M8.22262 17.1982C9.68512 17.095 10.3226 16.8768 10.5 16.774V16.0034C9.75295 16.0871 9.00171 16.1276 8.25 16.1249C8.0025 16.1249 7.75875 16.1212 7.5225 16.1137C7.26412 16.1212 7.00875 16.1249 6.75 16.1249C5.8125 16.1249 4.01662 16.0717 3 15.7019V16.7755C3.216 16.9049 4.03425 17.1404 5.64375 17.2203C6.50301 17.2662 7.36428 17.2588 8.22262 17.1982Z" fill="#031A6E"/>
<path d="M8.25 15.3749C9.10907 15.3809 9.96745 15.3247 10.8184 15.2065C11.2267 15.1703 11.6261 15.0661 12 14.8983V13.822C11.3783 14.0575 10.2578 14.2499 8.25 14.2499C7.3125 14.2499 5.51662 14.1966 4.5 13.8269V14.9013C4.73438 15.0408 5.68388 15.3033 7.51238 15.364C7.76663 15.3711 8.00662 15.3749 8.25 15.3749Z" fill="#031A6E"/>
<path d="M8.25005 13.5C10.1958 13.5 11.7732 13.3321 11.7732 13.125C11.7732 12.9179 10.1958 12.75 8.25005 12.75C6.30429 12.75 4.72693 12.9179 4.72693 13.125C4.72693 13.3321 6.30429 13.5 8.25005 13.5Z" fill="#031A6E"/>
</svg>
