<svg width="24" height="24" viewBox="0 0 24 24" fill="none" xmlns="http://www.w3.org/2000/svg">
<path d="M2.80005 0.400024H21.2001V2.80002H2.80005V0.400024Z" fill="#7D8D9C"/>
<path d="M3.59998 2.80005H20.4V6.00005H3.59998V2.80005Z" fill="#031A6E"/>
<path d="M8 23.6V22H12.8V23.6H8Z" fill="#031A6E"/>
<path d="M4.80005 4H5.60005V4.8H4.80005V4Z" fill="#031A6E"/>
<path d="M18.4 4H19.2V4.8H18.4V4Z" fill="#031A6E"/>
<path d="M15.2 13.6H12.8V12.8H14.4V11.2H15.2V13.6Z" fill="#031A6E"/>
<path d="M8.80005 11.2H9.60005V13.6H8.80005V11.2Z" fill="#031A6E"/>
<path d="M12.8 9.60005C12.8 10.0418 12.4417 10.4 12 10.4C11.5582 10.4 11.2 10.0418 11.2 9.60005C11.2 9.15825 11.5582 8.80005 12 8.80005C12.4417 8.80005 12.8 9.15825 12.8 9.60005Z" fill="#031A6E"/>
<path d="M8.80005 4.40002H9.60005V10.4H8.80005V4.40002Z" fill="#031A6E"/>
<path d="M14.4 4.40002H15.2V10.4H14.4V4.40002Z" fill="#031A6E"/>
<path d="M12 7.20002C13.5464 7.20002 14.8 5.94651 14.8 4.40002H9.19995C9.19995 5.94651 10.4535 7.20002 12 7.20002Z" fill="#031A6E"/>
<path d="M6.40002 4H17.6V4.8H6.40002V4Z" fill="#031A6E"/>
<path d="M9.19995 14.8H9.99995V16.8H9.19995V14.8Z" fill="#031A6E"/>
<path d="M3.20002 6.4H7.20002V9.43437L5.71721 10.9172C5.64221 10.9922 5.60002 11.0939 5.60002 11.2V16.4C5.60002 16.4459 5.60803 16.4914 5.62366 16.5344L7.60002 22.0688V23.6C7.60002 23.8209 7.77913 24 8.00002 24H12.8C13.0209 24 13.2 23.8209 13.2 23.6V17.6C13.2002 17.5459 13.1891 17.4922 13.1676 17.4424L12.2065 15.2H16.4C16.6209 15.2 16.8 15.0209 16.8 14.8V6.4H20.8V3.2H21.6V0H2.40002V3.2H3.20002V6.4ZM12.4 23.2H8.40002V22.4H12.4V23.2ZM12.4 21.6H8.2801L6.40002 16.3309V11.3656L7.20002 10.5656V14.8C7.20002 15.0209 7.37913 15.2 7.60002 15.2H9.20002V16.8H10V12.8C10 12.5791 10.1791 12.4 10.4 12.4H10.8C11.0209 12.4 11.2 12.5791 11.2 12.8V14.8C11.1998 14.8541 11.211 14.9078 11.2324 14.9576L12.4 17.682V21.6ZM16 14.4H12V12.8C12 12.1373 11.4627 11.6 10.8 11.6H10.4C10.1039 11.601 9.81877 11.7123 9.60002 11.9119V11.2H8.80002V13.6H9.20002V14.4H8.00002V4.8H8.80002V10.4H9.60002V6.50957C10.2051 7.20254 11.0801 7.6 12 7.6C12.9199 7.6 13.7949 7.20254 14.4 6.50957V10.4H15.2V4.8H16V14.4ZM9.63323 4.8H14.3668C14.1725 5.95566 13.1719 6.80215 12 6.80215C10.8281 6.80215 9.82756 5.95566 9.63323 4.8ZM20 5.6H16.8V4.8H17.6V4H6.40002V4.8H7.20002V5.6H4.00002V3.2H20V5.6ZM3.20002 0.8H20.8V2.4H3.20002V0.8Z" fill="#031A6E"/>
<path d="M4.80005 4H5.60005V4.8H4.80005V4Z" fill="#031A6E"/>
<path d="M18.4 4H19.2V4.8H18.4V4Z" fill="#031A6E"/>
<path d="M14.4 12.8H12.8V13.6H15.2V11.2H14.4V12.8Z" fill="#031A6E"/>
<path d="M13.2001 9.60002C13.2001 8.93733 12.6627 8.40002 12 8.40002C11.3374 8.40002 10.8 8.93733 10.8 9.60002C10.8 10.2627 11.3374 10.8 12 10.8C12.6627 10.8 13.2001 10.2627 13.2001 9.60002ZM12 10C11.7792 10 11.6 9.82092 11.6 9.60002C11.6 9.37913 11.7792 9.20002 12 9.20002C12.2209 9.20002 12.4 9.37913 12.4 9.60002C12.4 9.82092 12.2209 10 12 10Z" fill="#031A6E"/>
</svg>
