<svg width="24" height="24" viewBox="0 0 24 24" fill="none" xmlns="http://www.w3.org/2000/svg">
<g clip-path="url(#clip0)">
<path d="M23.9364 13.6898C23.8867 13.6537 23.8291 13.63 23.7683 13.6206C23.7076 13.6113 23.6455 13.6167 23.5873 13.6362L22.792 13.9C22.3472 14.0465 21.8719 14.0746 21.4129 13.9815C21.974 11.8685 21.8594 9.63291 21.0852 7.58836C20.3111 5.54381 18.9163 3.79295 17.0964 2.58145C15.2766 1.36995 13.1232 0.758624 10.9382 0.833252C8.75331 0.907879 6.64658 1.66472 4.91367 2.99756C3.18075 4.3304 1.90862 6.17236 1.27579 8.26496C0.642957 10.3576 0.681182 12.5958 1.3851 14.6656C2.08902 16.7353 3.4233 18.5328 5.20071 19.8057C6.97813 21.0786 9.10948 21.763 11.2957 21.763C11.3624 21.763 11.433 21.763 11.4803 21.7591H11.4966C13.0425 21.7301 14.5625 21.3576 15.9466 20.6687C16.3601 21.6689 17.0845 22.5096 18.0127 23.0665L19.6304 24.0363C19.6907 24.0725 19.7598 24.0917 19.8302 24.0917C19.9005 24.0917 19.9696 24.0725 20.0299 24.0363L21.6472 23.0665C22.3928 22.6167 23.01 21.9825 23.4391 21.2248C23.8683 20.4672 24.095 19.6118 24.0974 18.741V14.0044C24.0974 13.943 24.0828 13.8824 24.0548 13.8277C24.0268 13.773 23.9862 13.7257 23.9364 13.6898ZM11.6836 20.96V16.332H15.5629V17.2522C14.6036 19.4273 13.2043 20.7614 11.6836 20.96ZM1.6071 10.9009C1.65926 9.55333 1.9939 8.23169 2.58934 7.02164H5.62955C5.29842 8.28903 5.11885 9.59123 5.0946 10.9009H1.6071ZM6.42016 7.02164H10.9077V10.9009H5.87007C5.89378 9.59019 6.07853 8.28731 6.42016 7.02164ZM20.9843 10.9009H17.4968C17.4725 9.59123 17.2929 8.28903 16.9618 7.02164H20.002C20.5975 8.23169 20.9321 9.55333 20.9843 10.9009ZM16.7213 10.9009H11.6836V7.02164H16.1712C16.5128 8.28731 16.6976 9.59019 16.7213 10.9009ZM11.6836 6.24577V1.61814C13.4821 1.84625 15.0415 3.64198 15.933 6.24577H11.6836ZM10.9077 1.61814V6.24577H6.65835C7.54981 3.64198 9.1093 1.84625 10.9077 1.61814ZM10.9077 11.6768V15.5561H6.43606C6.09034 14.2911 5.90296 12.988 5.87822 11.6768H10.9077ZM10.9077 16.332V20.9615C9.16593 20.7381 7.59055 19.0188 6.66999 16.332H10.9077ZM16.0738 13.6366C16.0155 13.6171 15.9534 13.6118 15.8926 13.621C15.8318 13.6303 15.7741 13.6538 15.7242 13.6897C15.6743 13.7256 15.6337 13.7729 15.6056 13.8276C15.5776 13.8823 15.5629 13.9429 15.5629 14.0044V15.5561H11.6836V11.6768H16.7182C16.703 12.384 16.642 13.0894 16.5355 13.7887L16.0738 13.6366ZM17.494 11.6768H20.9796C20.9527 12.37 20.8513 13.0583 20.677 13.7297C20.55 13.6632 20.4282 13.587 20.3127 13.502L20.0451 13.3042C19.9774 13.2545 19.8955 13.2281 19.8115 13.2289C19.7276 13.2298 19.6462 13.2578 19.5796 13.3088L19.3468 13.4861C19.0556 13.7057 18.723 13.8643 18.3691 13.9524C18.0151 14.0405 17.6471 14.0563 17.2869 13.999C17.4087 13.2305 17.4779 12.4547 17.494 11.6768ZM19.5765 6.24577H16.7337C16.2649 4.6475 15.3919 3.19714 14.199 2.03478C16.4407 2.7438 18.3506 4.23938 19.5765 6.24577ZM8.3924 2.03478C7.19945 3.19714 6.32642 4.6475 5.85766 6.24577H3.0149C4.24074 4.23938 6.15061 2.7438 8.3924 2.03478ZM1.60865 11.6768H5.10197C5.12453 12.9865 5.30334 14.2888 5.6346 15.5561H2.59244C1.9935 14.3473 1.65817 13.025 1.60865 11.6768ZM3.01451 16.332H5.85494C6.30981 17.9237 7.17105 19.3697 8.35399 20.5278C6.12478 19.822 4.22749 18.3311 3.01451 16.332ZM15.5691 18.9055C15.5797 19.2475 15.625 19.5875 15.7045 19.9203C15.2353 20.1621 14.7468 20.3643 14.2439 20.5247C14.7585 20.0489 15.2044 19.504 15.5691 18.9055ZM23.3215 18.741C23.3194 19.4777 23.1275 20.2014 22.7644 20.8423C22.4012 21.4832 21.8789 22.0197 21.248 22.4L19.8302 23.2503L18.4119 22.4C17.7795 22.0214 17.256 21.4853 16.8927 20.844C16.5293 20.2027 16.3385 19.4781 16.3388 18.741V14.5432L16.6138 14.6356C16.6557 14.6484 16.6988 14.6608 16.7383 14.6716C17.2606 14.8232 17.8109 14.8506 18.3456 14.7518C18.8803 14.653 19.3846 14.4307 19.8181 14.1025L19.8515 14.1274C20.3028 14.4612 20.8276 14.6817 21.3819 14.7703C21.9361 14.859 22.5036 14.8131 23.0364 14.6367L23.3215 14.5417V18.741Z" fill="url(#paint0_linear)" fill-opacity="0.64"/>
<path d="M22.4899 15.1638C21.8851 15.2511 21.2683 15.1938 20.6899 14.9966C20.4545 14.9178 20.2275 14.816 20.0122 14.6925C19.9537 14.6591 19.8875 14.6416 19.8202 14.6416C19.7528 14.6416 19.6867 14.6591 19.6281 14.6925C18.8818 15.114 18.0177 15.2786 17.1687 15.1607C17.1137 15.153 17.0577 15.1571 17.0045 15.1729C16.9513 15.1887 16.9021 15.2157 16.8602 15.2521C16.8184 15.2885 16.7848 15.3334 16.7618 15.3839C16.7387 15.4344 16.7268 15.4893 16.7268 15.5447V18.7413C16.727 19.4114 16.9007 20.0699 17.231 20.6529C17.5613 21.2359 18.037 21.7233 18.6118 22.0678L19.6305 22.6784C19.6908 22.7146 19.7598 22.7337 19.8301 22.7337C19.9004 22.7337 19.9694 22.7146 20.0297 22.6784L21.0495 22.067C21.6228 21.7212 22.0973 21.2335 22.4273 20.651C22.7573 20.0685 22.9317 19.4108 22.9337 18.7413V15.5479C22.9337 15.4922 22.9218 15.4371 22.8986 15.3865C22.8755 15.3359 22.8417 15.2908 22.7996 15.2543C22.7575 15.2179 22.7081 15.191 22.6546 15.1753C22.6012 15.1597 22.545 15.1558 22.4899 15.1638ZM22.1578 18.7413C22.1563 19.2769 22.0167 19.8032 21.7527 20.2692C21.4886 20.7353 21.109 21.1254 20.6503 21.4021L19.8303 21.8936L19.0109 21.4021C18.5509 21.1269 18.1701 20.7371 17.9058 20.2707C17.6414 19.8043 17.5025 19.2774 17.5027 18.7413V15.9695C18.305 16.0058 19.103 15.8336 19.819 15.4699C20.0191 15.5725 20.2266 15.66 20.4397 15.7317C20.9917 15.9213 21.5749 16.0036 22.1578 15.9742V18.7413Z" fill="black" fill-opacity="0.59"/>
<path d="M21.1077 17.6089L19.4423 19.2743L18.6195 18.4511C18.5837 18.414 18.5409 18.3845 18.4936 18.3642C18.4462 18.3438 18.3953 18.3331 18.3438 18.3327C18.2923 18.3322 18.2412 18.342 18.1936 18.3616C18.1459 18.3811 18.1026 18.4099 18.0661 18.4463C18.0297 18.4827 18.0009 18.526 17.9814 18.5737C17.9619 18.6214 17.9521 18.6725 17.9525 18.724C17.953 18.7755 17.9637 18.8264 17.984 18.8737C18.0043 18.921 18.0339 18.9638 18.0709 18.9996L19.168 20.0971C19.2408 20.1698 19.3394 20.2107 19.4423 20.2107C19.5451 20.2107 19.6438 20.1698 19.7165 20.0971L21.6562 18.1574C21.7269 18.0843 21.766 17.9863 21.7651 17.8846C21.7642 17.7828 21.7234 17.6855 21.6515 17.6136C21.5796 17.5417 21.4823 17.5009 21.3805 17.5C21.2788 17.4991 21.1808 17.5382 21.1077 17.6089Z" fill="black" fill-opacity="0.59"/>
</g>
<defs>
<linearGradient id="paint0_linear" x1="12.4595" y1="25.2141" x2="12.4595" y2="0.732108" gradientUnits="userSpaceOnUse">
<stop/>
<stop offset="0.046875" stop-color="#000B0B"/>
<stop offset="0.510417" stop-color="#000B0B"/>
<stop offset="0.9999" stop-color="#000D0E"/>
<stop offset="1" stop-color="#00E7F0"/>
</linearGradient>
<clipPath id="clip0">
<rect width="24" height="24" fill="white"/>
</clipPath>
</defs>
</svg>
